<svg width="89" height="26" viewBox="0 0 89 26" fill="none" xmlns="http://www.w3.org/2000/svg">
<path d="M5.12 24.224C4.272 24.224 3.424 24.168 2.576 24.056C1.728 23.96 1.008 23.808 0.416 23.6V21.584C1.056 21.792 1.792 21.952 2.624 22.064C3.456 22.176 4.248 22.232 5 22.232C6.152 22.232 6.992 22.168 7.52 22.04C8.048 21.912 8.312 21.624 8.312 21.176C8.312 20.84 8.184 20.6 7.928 20.456C7.672 20.328 7.184 20.264 6.464 20.264H3.392C1.328 20.264 0.296 19.536 0.296 18.08C0.296 17.616 0.432 17.184 0.704 16.784C0.976 16.384 1.408 16.08 2 15.872C1.344 15.552 0.856 15.112 0.536 14.552C0.232 13.992 0.08 13.32 0.08 12.536C0.08 11.08 0.512 10.024 1.376 9.368C2.256 8.712 3.568 8.384 5.312 8.384C5.68 8.384 6.064 8.416 6.464 8.48C6.864 8.528 7.176 8.576 7.4 8.624H11.576L11.504 10.328H9.584C9.888 10.584 10.112 10.904 10.256 11.288C10.4 11.672 10.472 12.088 10.472 12.536C10.472 13.752 10.104 14.712 9.368 15.416C8.632 16.104 7.52 16.448 6.032 16.448C5.776 16.448 5.536 16.44 5.312 16.424C5.104 16.392 4.872 16.36 4.616 16.328C4.136 16.376 3.704 16.504 3.32 16.712C2.936 16.92 2.744 17.2 2.744 17.552C2.744 17.792 2.84 17.968 3.032 18.08C3.224 18.176 3.544 18.224 3.992 18.224H7.184C8.32 18.224 9.192 18.472 9.8 18.968C10.424 19.448 10.736 20.152 10.736 21.08C10.736 22.2 10.248 23 9.272 23.48C8.312 23.976 6.928 24.224 5.12 24.224ZM5.312 14.792C6.352 14.792 7.072 14.616 7.472 14.264C7.888 13.912 8.096 13.312 8.096 12.464C8.096 11.616 7.888 11 7.472 10.616C7.072 10.232 6.352 10.04 5.312 10.04C4.336 10.04 3.624 10.224 3.176 10.592C2.728 10.96 2.504 11.584 2.504 12.464C2.504 13.28 2.712 13.872 3.128 14.24C3.56 14.608 4.288 14.792 5.312 14.792ZM13.1917 20V8.624H15.5917L15.7357 9.944C16.2797 9.592 16.9277 9.272 17.6797 8.984C18.4317 8.696 19.1757 8.496 19.9117 8.384V10.376C19.4637 10.456 18.9757 10.576 18.4477 10.736C17.9357 10.88 17.4477 11.048 16.9837 11.24C16.5197 11.416 16.1277 11.6 15.8077 11.792V20H13.1917ZM25.9207 20.24C24.5607 20.24 23.5127 19.864 22.7767 19.112C22.0567 18.36 21.6967 17.256 21.6967 15.8V8.624H24.3127V15.8C24.3127 16.648 24.5207 17.272 24.9367 17.672C25.3527 18.072 25.9927 18.272 26.8567 18.272C27.4967 18.272 28.0887 18.152 28.6327 17.912C29.1767 17.672 29.6487 17.352 30.0487 16.952V8.624H32.6407V20H30.2647L30.1447 18.824C29.6327 19.224 29.0247 19.56 28.3207 19.832C27.6167 20.104 26.8167 20.24 25.9207 20.24ZM35.6917 25.184V8.624H37.9477L38.0917 9.752C38.6037 9.288 39.1637 8.944 39.7717 8.72C40.3797 8.496 41.0997 8.384 41.9317 8.384C43.5637 8.384 44.8357 8.832 45.7477 9.728C46.6597 10.608 47.1157 12.072 47.1157 14.12C47.1157 16.168 46.6437 17.704 45.6997 18.728C44.7557 19.736 43.4677 20.24 41.8357 20.24C40.4597 20.24 39.2837 19.92 38.3077 19.28V25.184H35.6917ZM41.1637 18.272C43.3717 18.272 44.4757 16.88 44.4757 14.096C44.4757 12.752 44.2277 11.8 43.7317 11.24C43.2357 10.664 42.4037 10.376 41.2357 10.376C40.0677 10.376 39.0917 10.776 38.3077 11.576V17.264C38.6757 17.568 39.0837 17.816 39.5317 18.008C39.9957 18.184 40.5397 18.272 41.1637 18.272ZM55.1084 20.24C53.0604 20.24 51.5564 19.728 50.5964 18.704C49.6524 17.68 49.1804 16.216 49.1804 14.312C49.1804 12.408 49.6604 10.944 50.6204 9.92C51.5804 8.896 53.0764 8.384 55.1084 8.384C57.1564 8.384 58.6604 8.896 59.6204 9.92C60.5804 10.944 61.0604 12.408 61.0604 14.312C61.0604 16.216 60.5804 17.68 59.6204 18.704C58.6764 19.728 57.1724 20.24 55.1084 20.24ZM55.1084 18.032C56.3084 18.032 57.1564 17.744 57.6524 17.168C58.1644 16.576 58.4204 15.624 58.4204 14.312C58.4204 13 58.1644 12.056 57.6524 11.48C57.1564 10.904 56.3084 10.616 55.1084 10.616C53.9244 10.616 53.0764 10.904 52.5644 11.48C52.0684 12.056 51.8204 13 51.8204 14.312C51.8204 15.624 52.0684 16.576 52.5644 17.168C53.0764 17.744 53.9244 18.032 55.1084 18.032Z" fill="black"/>
<path d="M80.4219 12.9062C80.4219 11.5729 80.0104 10.5417 79.1875 9.8125C78.3646 9.08333 77.276 8.71875 75.9219 8.71875C74.776 8.71875 73.7917 9.11458 72.9688 9.90625C72.1458 10.6979 71.7344 11.6458 71.7344 12.75C71.7344 13.375 71.8177 13.9375 71.9844 14.4375C72.151 14.9271 72.375 15.3385 72.6562 15.6719C72.9479 15.9948 73.2917 16.2656 73.6875 16.4844C74.0833 16.6927 74.4948 16.8438 74.9219 16.9375C75.3594 17.0312 75.8229 17.0781 76.3125 17.0781C77.5 17.0781 78.5833 16.7865 79.5625 16.2031V17.3281C78.5521 17.8594 77.4635 18.125 76.2969 18.125C75.5469 18.125 74.8385 18.026 74.1719 17.8281C73.5156 17.6198 72.9167 17.3125 72.375 16.9062C71.8333 16.4896 71.401 15.9271 71.0781 15.2188C70.7656 14.5 70.6094 13.6771 70.6094 12.75C70.6094 11.3125 71.1146 10.0938 72.125 9.09375C73.1354 8.09375 74.401 7.59375 75.9219 7.59375C77.599 7.59375 78.9531 8.06771 79.9844 9.01562C81.026 9.95312 81.5469 11.25 81.5469 12.9062V24H80.4219V12.9062ZM83.7969 12.9062V24H82.6719V12.9062C82.6719 10.9375 82.0417 9.375 80.7812 8.21875C79.5208 7.05208 77.901 6.46875 75.9219 6.46875C74.0885 6.46875 72.5573 7.07812 71.3281 8.29688C70.099 9.51562 69.4844 11 69.4844 12.75C69.4844 13.8125 69.6667 14.7656 70.0312 15.6094C70.4062 16.4531 70.9115 17.1302 71.5469 17.6406C72.1823 18.151 72.8906 18.5417 73.6719 18.8125C74.4635 19.0729 75.2969 19.2031 76.1719 19.2031C77.3594 19.2031 78.4896 18.9271 79.5625 18.375V19.5625C78.4375 20.0312 77.3021 20.2656 76.1562 20.2656C75.125 20.2656 74.1458 20.1094 73.2188 19.7969C72.2917 19.474 71.4635 19.0104 70.7344 18.4062C70.0052 17.7917 69.4271 17 69 16.0312C68.5729 15.0521 68.3594 13.9583 68.3594 12.75C68.3594 10.6979 69.0833 8.95312 70.5312 7.51562C71.9896 6.06771 73.7865 5.34375 75.9219 5.34375C77.4219 5.34375 78.7656 5.65104 79.9531 6.26562C81.1406 6.86979 82.0781 7.75 82.7656 8.90625C83.4531 10.0625 83.7969 11.3958 83.7969 12.9062ZM86.0469 12.9062V24H84.9219V12.9062C84.9219 11.1875 84.526 9.66667 83.7344 8.34375C82.9531 7.01042 81.8802 5.98958 80.5156 5.28125C79.151 4.57292 77.6198 4.21875 75.9219 4.21875C74.3073 4.21875 72.8333 4.60417 71.5 5.375C70.1667 6.13542 69.1198 7.16667 68.3594 8.46875C67.6094 9.77083 67.2344 11.1979 67.2344 12.75C67.2344 14.0833 67.4792 15.3021 67.9688 16.4062C68.4583 17.5 69.1146 18.401 69.9375 19.1094C70.7708 19.8177 71.7135 20.3698 72.7656 20.7656C73.8281 21.151 74.9375 21.3438 76.0938 21.3438C77.2708 21.3438 78.4271 21.099 79.5625 20.6094V21.75C78.375 22.1979 77.2083 22.4219 76.0625 22.4219C74.2604 22.4219 72.6042 22.0156 71.0938 21.2031C69.5833 20.3906 68.375 19.2396 67.4688 17.75C66.5625 16.2604 66.1094 14.5938 66.1094 12.75C66.1094 11.4375 66.3594 10.1875 66.8594 9C67.3698 7.8125 68.0573 6.78646 68.9219 5.92188C69.7865 5.05729 70.8281 4.36979 72.0469 3.85938C73.2656 3.34896 74.5573 3.09375 75.9219 3.09375C77.8281 3.09375 79.5469 3.5 81.0781 4.3125C82.6198 5.125 83.8333 6.28125 84.7188 7.78125C85.6042 9.28125 86.0469 10.9896 86.0469 12.9062ZM88.2969 12.9062V24H87.1719V12.9062C87.1719 10.7812 86.6771 8.88542 85.6875 7.21875C84.6979 5.54167 83.349 4.25 81.6406 3.34375C79.9323 2.42708 78.026 1.96875 75.9219 1.96875C73.901 1.96875 72.0521 2.45312 70.375 3.42188C68.6979 4.39062 67.3802 5.70312 66.4219 7.35938C65.4635 9.00521 64.9844 10.8021 64.9844 12.75C64.9844 14.0312 65.1875 15.25 65.5938 16.4062C66.0104 17.5521 66.5729 18.5573 67.2812 19.4219C68 20.276 68.8229 21.0156 69.75 21.6406C70.6875 22.2656 71.6927 22.7396 72.7656 23.0625C73.849 23.3854 74.9479 23.5469 76.0625 23.5469C77.2917 23.5469 78.4583 23.3125 79.5625 22.8438V24C78.4062 24.4062 77.2188 24.6094 76 24.6094C74.7396 24.6094 73.5104 24.4323 72.3125 24.0781C71.125 23.724 70.0208 23.2031 69 22.5156C67.9896 21.8177 67.099 21 66.3281 20.0625C65.5573 19.1146 64.9531 18.0104 64.5156 16.75C64.0781 15.4896 63.8594 14.1562 63.8594 12.75C63.8594 11.1354 64.1615 9.59896 64.7656 8.14062C65.3802 6.67188 66.2135 5.40625 67.2656 4.34375C68.3281 3.27083 69.6094 2.42188 71.1094 1.79688C72.6198 1.16146 74.224 0.84375 75.9219 0.84375C77.651 0.84375 79.276 1.13542 80.7969 1.71875C82.3177 2.30208 83.6302 3.11458 84.7344 4.15625C85.8385 5.1875 86.7083 6.45833 87.3438 7.96875C87.9792 9.47917 88.2969 11.125 88.2969 12.9062Z" fill="black"/>
</svg>
